<svg width="24" height="24" viewBox="0 0 24 24" fill="none" xmlns="http://www.w3.org/2000/svg">
<path d="M9 15.9375C9 15.9375 10.125 17 12 17C13.875 17 15 15.9375 15 15.9375M17 10.625C17 11.2118 16.5523 11.6875 16 11.6875C15.4477 11.6875 15 11.2118 15 10.625C15 10.0382 15.4477 9.5625 16 9.5625C16.5523 9.5625 17 10.0382 17 10.625ZM22 12.75C22 18.618 17.5228 23.375 12 23.375C6.47715 23.375 2 18.618 2 12.75C2 6.88197 6.47715 2.125 12 2.125C17.5228 2.125 22 6.88197 22 12.75ZM9 10.625C9 11.2118 8.55228 11.6875 8 11.6875C7.44772 11.6875 7 11.2118 7 10.625C7 10.0382 7.44772 9.5625 8 9.5625C8.55228 9.5625 9 10.0382 9 10.625Z" stroke="black" stroke-width="1.5" stroke-linecap="round" stroke-linejoin="round"/>
</svg>
