<svg width="24" height="24" viewBox="0 0 24 24" fill="none" xmlns="http://www.w3.org/2000/svg">
<path d="M12 2.125C13.6445 2.125 15.2636 2.55592 16.714 3.37959C18.1643 4.20325 19.4011 5.39425 20.3147 6.84707C21.2283 8.29989 21.7907 9.96969 21.9519 11.7086C22.113 13.4474 21.8681 15.2017 21.2388 16.816M12 2.125V7.47536M12 2.125C10.0222 2.125 8.08879 2.74815 6.4443 3.91564C4.79981 5.08313 3.51809 6.74252 2.76121 8.68399C2.00433 10.6255 1.8063 12.7618 2.19215 14.8228C2.578 16.8839 3.53041 18.7771 4.92894 20.263M21.2388 16.816C20.6095 18.4303 19.6152 19.8548 18.3439 20.9632C17.0727 22.0717 15.5638 22.83 13.9509 23.1708C12.338 23.5117 10.6709 23.4247 9.09716 22.9175C7.52346 22.4103 6.09178 21.4985 4.92894 20.263M21.2388 16.816C21.7413 15.5269 22 14.1453 22 12.75H16.9644C16.9644 13.4427 16.836 14.1286 16.5865 14.7685M21.2388 16.816C20.7363 18.1051 19.9997 19.2764 19.0711 20.263L15.5103 16.4797C15.9713 15.9899 16.337 15.4085 16.5865 14.7685M4.92894 20.263L8.48967 16.4797M8.48967 16.4797C9.06695 17.0931 9.77768 17.5457 10.5589 17.7975C11.3402 18.0493 12.1678 18.0925 12.9685 17.9233C13.7692 17.7541 14.5183 17.3776 15.1494 16.8274C15.7804 16.2771 16.2741 15.5699 16.5865 14.7685M8.48967 16.4797C7.79539 15.7421 7.32258 14.8022 7.13102 13.779C6.93947 12.7559 7.03778 11.6953 7.41353 10.7315C7.78927 9.76767 8.42556 8.94388 9.24195 8.3643C10.0583 7.78471 11.0181 7.47536 12 7.47536M16.5865 14.7685C16.8989 13.9671 17.0205 13.0962 16.9405 12.233C16.8604 11.3698 16.5813 10.5408 16.1277 9.81957C15.6742 9.09833 15.0602 8.50708 14.3402 8.09818C13.6202 7.68928 12.8164 7.47536 12 7.47536" stroke="black" stroke-width="1.5"/>
</svg>
