<svg width="155" height="26" viewBox="0 0 155 26" fill="none" xmlns="http://www.w3.org/2000/svg">
<path d="M118.158 20.3031C116.709 20.3031 115.419 19.9977 114.287 19.3868C113.156 18.7584 112.264 17.9031 111.61 16.8209C110.956 15.7387 110.629 14.5081 110.629 13.1292C110.629 11.7328 110.956 10.5022 111.61 9.4375C112.264 8.3553 113.156 7.50874 114.287 6.89783C115.419 6.28691 116.709 5.98145 118.158 5.98145C119.625 5.98145 120.924 6.28691 122.056 6.89783C123.204 7.50874 124.097 8.34658 124.733 9.41132C125.387 10.4761 125.714 11.7154 125.714 13.1292C125.714 14.5081 125.387 15.7387 124.733 16.8209C124.097 17.9031 123.204 18.7584 122.056 19.3868C120.924 19.9977 119.625 20.3031 118.158 20.3031ZM118.158 17.5016C118.971 17.5016 119.696 17.3271 120.332 16.978C120.969 16.6289 121.463 16.1227 121.817 15.4594C122.188 14.7961 122.374 14.0194 122.374 13.1292C122.374 12.2216 122.188 11.4448 121.817 10.799C121.463 10.1357 120.969 9.62951 120.332 9.28041C119.696 8.93131 118.98 8.75677 118.185 8.75677C117.372 8.75677 116.647 8.93131 116.011 9.28041C115.392 9.62951 114.897 10.1357 114.526 10.799C114.155 11.4448 113.969 12.2216 113.969 13.1292C113.969 14.0194 114.155 14.7961 114.526 15.4594C114.897 16.1227 115.392 16.6289 116.011 16.978C116.647 17.3271 117.363 17.5016 118.158 17.5016Z" fill="#5F6AFF"/>
<path d="M103.086 20.3032V1H106.857V20.3032H103.086Z" fill="#5F6AFF"/>
<path d="M91.0335 20.3032V5.7678C91.0335 4.32458 91.4799 3.17343 92.3727 2.31437C93.2836 1.43812 94.5772 1 96.2534 1C96.8547 1 97.4195 1.06013 97.9478 1.1804C98.4944 1.30067 98.9499 1.48967 99.3143 1.74738L98.3851 4.16994C98.13 3.98095 97.8385 3.8435 97.5106 3.75759C97.1826 3.65451 96.8455 3.60296 96.4994 3.60296C95.7888 3.60296 95.2513 3.79196 94.887 4.16994C94.5226 4.53075 94.3404 5.08055 94.3404 5.81934V7.36566L94.4497 8.80889V20.3032H91.0335ZM88.6286 9.22124V6.64405H98.3578V9.22124H88.6286Z" fill="#5F6AFF"/>
<path d="M74.78 25.2846C74.098 25.2846 73.4159 25.1745 72.7338 24.9542C72.0517 24.7339 71.4833 24.4289 71.0286 24.0392L72.3403 21.701C72.6726 21.989 73.0486 22.2178 73.4683 22.3872C73.8881 22.5567 74.3166 22.6414 74.7538 22.6414C75.3485 22.6414 75.8294 22.4974 76.1967 22.2093C76.564 21.9213 76.905 21.4384 77.2198 20.7606L78.0331 18.9815L78.2954 18.6003L83.5947 6.60413H86.7429L80.1843 21.2689C79.7471 22.2856 79.2574 23.0904 78.7152 23.6834C78.1905 24.2764 77.5959 24.6916 76.9313 24.9288C76.2841 25.166 75.5671 25.2846 74.78 25.2846ZM77.6658 20.659L71.3434 6.60413H74.7538L79.8957 18.3207L77.6658 20.659Z" fill="#5F6AFF"/>
<path d="M62.5612 20.3692C61.4082 20.3692 60.3529 20.1062 59.395 19.5801C58.4549 19.054 57.7011 18.2649 57.1335 17.2128C56.5836 16.1432 56.3087 14.7929 56.3087 13.1622C56.3087 11.5138 56.5748 10.1636 57.1069 9.1115C57.6568 8.05938 58.4017 7.27906 59.3418 6.77053C60.2819 6.24448 61.355 5.98145 62.5612 5.98145C63.9624 5.98145 65.1952 6.27955 66.2594 6.87575C67.3414 7.47195 68.1928 8.30488 68.8136 9.37453C69.4522 10.4442 69.7714 11.7067 69.7714 13.1622C69.7714 14.6176 69.4522 15.8889 68.8136 16.9761C68.1928 18.0458 67.3414 18.8787 66.2594 19.4749C65.1952 20.0711 63.9624 20.3692 62.5612 20.3692ZM54.6857 25.2846L54.6857 6.13926H57.8519V9.45344L57.7454 13.1885L58.0115 16.9235L58.0115 25.2846H54.6857ZM62.1887 17.5548C62.9869 17.5548 63.6964 17.3794 64.3172 17.0287C64.9557 16.678 65.4612 16.1695 65.8337 15.5031C66.2062 14.8368 66.3925 14.0565 66.3925 13.1622C66.3925 12.2503 66.2062 11.47 65.8337 10.8212C65.4612 10.1549 64.9557 9.64633 64.3172 9.29562C63.6964 8.94492 62.9869 8.76956 62.1887 8.76956C61.3905 8.76956 60.6721 8.94492 60.0336 9.29562C59.395 9.64633 58.8895 10.1549 58.517 10.8212C58.1445 11.47 57.9583 12.2503 57.9583 13.1622C57.9583 14.0565 58.1445 14.8368 58.517 15.5031C58.8895 16.1695 59.395 16.678 60.0336 17.0287C60.6721 17.3794 61.3905 17.5548 62.1887 17.5548Z" fill="#5F6AFF"/>
<path d="M43.3759 20.3692C42.271 20.3692 41.2596 20.1062 40.3417 19.5801C39.4407 19.054 38.7183 18.2649 38.1744 17.2128C37.6474 16.1432 37.3839 14.7929 37.3839 13.1622C37.3839 11.5138 37.6389 10.1636 38.1489 9.1115C38.6758 8.05938 39.3898 7.27906 40.2907 6.77053C41.1916 6.24448 42.22 5.98145 43.3759 5.98145C44.7187 5.98145 45.9001 6.27955 46.92 6.87575C47.9569 7.47195 48.7729 8.30488 49.3678 9.37453C49.9798 10.4442 50.2857 11.7067 50.2857 13.1622C50.2857 14.6176 49.9798 15.8889 49.3678 16.9761C48.7729 18.0458 47.9569 18.8787 46.92 19.4749C45.9001 20.0711 44.7187 20.3692 43.3759 20.3692ZM35.8286 25.2846L35.8286 6.13926H38.8628V9.45344L38.7608 13.1885L39.0158 16.9235V25.2846H35.8286ZM43.0189 17.5548C43.7838 17.5548 44.4638 17.3794 45.0587 17.0287C45.6707 16.678 46.1551 16.1695 46.5121 15.5031C46.869 14.8368 47.0475 14.0565 47.0475 13.1622C47.0475 12.2503 46.869 11.47 46.5121 10.8212C46.1551 10.1549 45.6707 9.64633 45.0587 9.29562C44.4638 8.94492 43.7838 8.76956 43.0189 8.76956C42.254 8.76956 41.5655 8.94492 40.9536 9.29562C40.3417 9.64633 39.8572 10.1549 39.5002 10.8212C39.1433 11.47 38.9648 12.2503 38.9648 13.1622C38.9648 14.0565 39.1433 14.8368 39.5002 15.5031C39.8572 16.1695 40.3417 16.678 40.9536 17.0287C41.5655 17.3794 42.254 17.5548 43.0189 17.5548Z" fill="#5F6AFF"/>
<path d="M27.1128 20.1199V17.2922L26.9314 16.69V11.7415C26.9314 10.7815 26.6462 10.0397 26.076 9.51605C25.5057 8.97495 24.6417 8.7044 23.484 8.7044C22.7063 8.7044 21.9374 8.82658 21.177 9.07095C20.434 9.31532 19.8032 9.65569 19.2848 10.0921L18.0147 7.70947C18.7578 7.13346 19.6391 6.70582 20.6586 6.42654C21.6954 6.12981 22.7668 5.98145 23.8728 5.98145C25.8773 5.98145 27.4239 6.47018 28.5125 7.44765C29.6185 8.40767 30.1714 9.90006 30.1714 11.9248V20.1199H27.1128ZM22.7582 20.3031C21.7214 20.3031 20.8141 20.1286 20.0365 19.7795C19.2589 19.4129 18.6541 18.9155 18.2221 18.2871C17.8074 17.6413 17.6 16.9169 17.6 16.114C17.6 15.3285 17.7814 14.6216 18.1443 13.9932C18.5245 13.3648 19.138 12.8674 19.9847 12.5008C20.8314 12.1343 21.9546 11.951 23.3543 11.951H27.372V14.1241H23.5876C22.4817 14.1241 21.7386 14.3074 21.3585 14.674C20.9783 15.0231 20.7882 15.4594 20.7882 15.9831C20.7882 16.5765 21.0215 17.0478 21.4881 17.3969C21.9546 17.746 22.6027 17.9206 23.4321 17.9206C24.227 17.9206 24.9355 17.7373 25.5576 17.3707C26.197 17.0042 26.6549 16.4631 26.9314 15.7474L27.4757 17.7111C27.1647 18.5315 26.603 19.1686 25.7909 19.6224C24.996 20.0762 23.9851 20.3031 22.7582 20.3031Z" fill="#5F6AFF"/>
<path d="M7.6038 6.25504C8.67453 6.25504 9.62814 6.47183 10.4646 6.90541C11.3179 7.339 11.9871 8.00672 12.4722 8.90857C12.9574 9.79308 13.2 10.9377 13.2 12.3426V20.3032H10.0631V12.7588C10.0631 11.5274 9.77871 10.6082 9.20989 10.0012C8.65779 9.39419 7.87985 9.09068 6.87605 9.09068C6.13992 9.09068 5.48745 9.24677 4.91863 9.55895C4.34981 9.87113 3.90646 10.3394 3.58859 10.9638C3.28745 11.5708 3.13688 12.3426 3.13688 13.2791V20.3032H0V1H3.13688V10.1573L2.45932 9.01263C2.92776 8.12812 3.60532 7.45173 4.49201 6.98346C5.39544 6.49784 6.4327 6.25504 7.6038 6.25504Z" fill="#5F6AFF"/>
<path d="M132.912 20.3976L132.976 20.5532H133.144H135.76H135.931L135.993 20.3945L140.165 9.7705L144.287 20.3936L144.349 20.5532H144.52H147.137H147.313L147.372 20.3869L154.236 1.08375L154.354 0.75H154H151.554H151.377L151.318 0.916799L145.8 16.5528L141.597 5.42319L141.536 5.26152H141.363H139.059H138.888L138.826 5.42146L134.478 16.6817L131.677 9.70691L131.614 9.55008H131.445H128.857H128.485L128.626 9.89454L132.912 20.3976Z" fill="#5F6AFF" stroke="#5F6AFF" stroke-width="0.5"/>
</svg>
